<svg xmlns="http://www.w3.org/2000/svg" width="1em" height="1em" viewBox="0 0 27 26" fill="none">
<path d="M6.79685 7.70187H20.2005C21.8759 7.70187 23.2721 9.37732 23.5514 11.0528L25.2268 21.1055C25.5062 22.7818 23.5514 24.4564 21.8759 24.4564H5.1214C3.44595 24.4564 1.49112 22.7818 1.7705 21.1055L3.44595 11.0528C3.72523 9.37732 5.1214 7.70187 6.79685 7.70187Z" stroke="currentColor" stroke-width="1.9" stroke-linecap="round" stroke-linejoin="round" fill="none"></path>
<path d="M8.47217 11.0528V6.00702" stroke="currentColor" stroke-width="1.9" stroke-linecap="round" stroke-linejoin="round" fill="none"></path>
<path d="M18.5251 6.02637V11.0527" stroke="currentColor" stroke-width="1.9" stroke-linecap="round" stroke-linejoin="round"></path>
<path d="M2.09424 19.3586H24.9034" stroke="currentColor" stroke-width="1.9" stroke-linecap="round" stroke-linejoin="round"></path>
<path d="M18.5249 6.02649C18.5249 4.35104 17.551 2.56532 16.002 1.67095C15.2408 1.2315 14.3774 1.00015 13.4985 1.00015C12.6196 1.00015 11.7562 1.2315 10.9951 1.67095C9.44592 2.56532 8.47217 4.35104 8.47217 6.02649" stroke="currentColor" stroke-width="1.9" stroke-linecap="round" stroke-linejoin="round" fill="none"></path>
</svg>