<svg xmlns="http://www.w3.org/2000/svg" width="55" height="49" viewBox="0 0 55 49" fill="none"><path d="M9.5 1.5L1.5 15L3 16H15V14L17.5 9.5L20.5 2L9.5 1.5Z" fill="#FFB128"></path><path d="M40 16H53.5L30.5 44.5L31 38.5L36.5 25L40 16Z" fill="#FFB128"></path><path d="M54.9896 15.7329C54.9876 15.7193 54.9837 15.7058 54.9813 15.6923C54.9757 15.6631 54.97 15.6339 54.9616 15.6052C54.957 15.5893 54.9505 15.5737 54.9451 15.5579C54.936 15.532 54.9271 15.5061 54.9157 15.481C54.9137 15.4764 54.9125 15.4717 54.9105 15.4673C54.9046 15.4546 54.8967 15.4434 54.8903 15.4311C54.8817 15.4147 54.8748 15.3979 54.8652 15.382L46.2978 1.0005C46.1252 0.710679 45.8129 0.533325 45.4756 0.533325H9.52448C9.18718 0.533325 8.87479 0.710894 8.70227 1.0005L0.134707 15.3817C0.125254 15.3976 0.118272 15.4145 0.109678 15.4308C0.10334 15.4431 0.0953909 15.4545 0.0894827 15.467C0.0873342 15.4715 0.08626 15.4764 0.084219 15.4808C0.0728322 15.506 0.0639162 15.5318 0.0548927 15.5577C0.0494142 15.5735 0.0428615 15.589 0.0383497 15.605C0.0300782 15.6336 0.0242774 15.6629 0.0186915 15.6921C0.0161133 15.7056 0.0121387 15.719 0.0103125 15.7327C0.00408204 15.7756 0.000537111 15.8187 0 15.8619C0 15.8658 0.000644533 15.8695 0.000644533 15.8735C0.000751955 15.9128 0.0029004 15.9522 0.00784182 15.9914C0.00977542 16.0061 0.0134278 16.0205 0.0160059 16.0351C0.0208399 16.063 0.0255665 16.0909 0.0329786 16.1184C0.0375978 16.1358 0.0442579 16.1526 0.0498439 16.1698C0.0577931 16.194 0.0654201 16.2179 0.0751955 16.2416C0.0828225 16.2598 0.0922757 16.2773 0.101084 16.295C0.109141 16.3114 0.115801 16.3282 0.124825 16.3444C0.127725 16.3496 0.131592 16.354 0.1346 16.3593C0.14459 16.3762 0.156084 16.3923 0.167041 16.4084C0.181221 16.4293 0.195508 16.4498 0.211192 16.4694C0.215704 16.4749 0.219034 16.4811 0.223653 16.4866L13.8769 32.7608C14.2166 33.1659 14.8205 33.2189 15.2254 32.879C15.6304 32.5391 15.6833 31.9354 15.3434 31.5306L3.00922 16.8288H13.6596L24.1997 42.0871L17.8135 34.4752C17.4738 34.0701 16.87 34.0174 16.4651 34.357C16.0602 34.6969 16.0072 35.3006 16.3471 35.7055L26.7625 48.1202C26.7629 48.1208 26.7633 48.1211 26.7637 48.1215L26.7666 48.1251C26.7699 48.1292 26.7739 48.1325 26.7773 48.1365C26.7937 48.1553 26.8108 48.1734 26.8287 48.191C26.8356 48.1978 26.8423 48.2047 26.8493 48.2113C26.8524 48.2141 26.855 48.2172 26.8581 48.2199C26.8588 48.2206 26.8594 48.2212 26.8601 48.2218C26.8749 48.2351 26.8908 48.2475 26.9067 48.26C26.9132 48.2652 26.9194 48.2706 26.9258 48.2756C26.9361 48.2833 26.9473 48.2904 26.9579 48.2978C26.9653 48.3029 26.9726 48.3079 26.98 48.3127C26.9876 48.3176 26.9946 48.323 27.0023 48.3277C27.0029 48.3281 27.0037 48.3283 27.0044 48.3289C27.0276 48.3429 27.0518 48.3552 27.0759 48.367C27.082 48.3701 27.0877 48.3736 27.094 48.3764C27.1003 48.3792 27.1065 48.3819 27.1126 48.3847C27.1236 48.3895 27.1348 48.3934 27.1459 48.3978C27.1672 48.4062 27.1884 48.4147 27.2103 48.4216C27.2171 48.4237 27.2242 48.4257 27.2312 48.4278C27.2432 48.4313 27.2553 48.4341 27.2673 48.4371C27.2899 48.4427 27.3125 48.4474 27.3353 48.4514C27.3447 48.4531 27.3539 48.4554 27.3633 48.4568C27.3701 48.4578 27.377 48.4584 27.3837 48.4593C27.4206 48.4638 27.4578 48.4666 27.4951 48.4667C27.4965 48.4667 27.4978 48.4669 27.4992 48.4669H27.4994H27.4996H27.4999H27.5001C27.5014 48.4669 27.5028 48.4667 27.5041 48.4667C27.5414 48.4666 27.5786 48.4638 27.6156 48.4592C27.6223 48.4584 27.629 48.4578 27.6358 48.4567C27.6453 48.4553 27.6546 48.4528 27.664 48.4513C27.687 48.4473 27.7099 48.4426 27.7324 48.4369C27.7442 48.434 27.7561 48.4312 27.7679 48.4277C27.7751 48.4256 27.7821 48.4236 27.7892 48.4213C27.8113 48.4144 27.8327 48.4059 27.8542 48.3974C27.8651 48.3931 27.8759 48.3893 27.8866 48.3846C27.8928 48.3819 27.8993 48.3792 27.9054 48.3763C27.9116 48.3734 27.9176 48.3697 27.9238 48.3667C27.9479 48.3548 27.9718 48.3427 27.995 48.3286C27.9957 48.3282 27.9965 48.328 27.9971 48.3275C28.0047 48.3227 28.0118 48.3174 28.0194 48.3125C28.0269 48.3077 28.0342 48.3027 28.0415 48.2976C28.0522 48.2902 28.0633 48.2832 28.0738 48.2754C28.0804 48.2705 28.0865 48.265 28.0927 48.2599C28.1085 48.2474 28.1245 48.2349 28.1395 48.2214C28.1401 48.2208 28.1407 48.2201 28.1414 48.2196C28.1445 48.2168 28.1473 48.2137 28.1503 48.2109C28.1573 48.2043 28.1641 48.1976 28.1708 48.1908C28.1887 48.1732 28.2059 48.1549 28.2223 48.136C28.2257 48.1321 28.2296 48.1286 28.233 48.1246L28.2359 48.1211C28.2364 48.1207 28.2367 48.1202 28.2371 48.1198L54.776 16.4865C54.7806 16.481 54.784 16.4749 54.7884 16.4693C54.8041 16.4497 54.8184 16.4291 54.8326 16.4083C54.8439 16.3923 54.8551 16.3763 54.8652 16.3594C54.8684 16.3541 54.8721 16.3497 54.875 16.3445C54.884 16.3286 54.8907 16.3115 54.8988 16.2952C54.9076 16.2773 54.917 16.2599 54.9246 16.2417C54.9344 16.218 54.9422 16.1941 54.95 16.1699C54.9556 16.1528 54.9622 16.1361 54.9669 16.1186C54.9743 16.0909 54.979 16.0631 54.9838 16.0352C54.9864 16.0205 54.9902 16.0062 54.992 15.9915C54.9969 15.9523 54.9992 15.9129 54.9992 15.8736C54.9992 15.8697 54.9998 15.8659 54.9998 15.862C54.9995 15.819 54.9959 15.7758 54.9896 15.7329ZM2.6413 14.9145L10.0685 2.44759H19.442L17.9799 5.61396C17.7584 6.09392 17.9676 6.66262 18.4476 6.88423C18.9276 7.10562 19.4963 6.89637 19.7178 6.41651L21.5505 2.44759H33.4491L39.2061 14.9145H15.7937L17.95 10.2449C18.0193 10.095 18.0464 9.9363 18.0364 9.78226C18.0143 9.44345 17.8123 9.12699 17.4823 8.97455C17.4164 8.94405 17.3486 8.92256 17.2805 8.90795C16.8835 8.82298 16.4684 8.99905 16.2577 9.35547C16.2413 9.38329 16.226 9.4123 16.2122 9.44227L13.6853 14.9145H2.6413ZM30.8 42.0872L37.6659 25.634C37.8694 25.1461 37.639 24.5856 37.1512 24.3819C36.6637 24.1785 36.103 24.409 35.8993 24.8965L27.5001 45.0242L15.734 16.8288H39.2659L37.4969 21.0681C37.2933 21.556 37.5238 22.1166 38.0116 22.3202C38.4991 22.5238 39.0599 22.2933 39.2635 21.8056L41.3402 16.8289H51.9906L30.8 42.0872ZM41.3148 14.9145L41.0878 14.423L35.5577 2.44759H44.9313L52.3585 14.9145H41.3148Z" fill="#0B3954" stroke="#0B3954" stroke-width="0.3"></path></svg>